<?xml version="1.0" standalone="no"?>
<!DOCTYPE svg PUBLIC "-//W3C//DTD SVG 20010904//EN"
 "http://www.w3.org/TR/2001/REC-SVG-20010904/DTD/svg10.dtd">
<svg version="1.0" xmlns="http://www.w3.org/2000/svg"
 width="640.000000pt" height="480.000000pt" viewBox="0 0 640.000000 480.000000"
 preserveAspectRatio="xMidYMid meet">

<g transform="translate(0.000000,480.000000) scale(0.100000,-0.100000)"
fill="#000000" stroke="none">
<path d="M0 2400 l0 -2400 3200 0 3200 0 0 2400 0 2400 -3200 0 -3200 0 0
-2400z m4137 2088 c-3 -8 -6 -5 -6 6 -1 11 2 17 5 13 3 -3 4 -12 1 -19z
m-1260 -20 c-3 -8 -6 -5 -6 6 -1 11 2 17 5 13 3 -3 4 -12 1 -19z m120 0 c-3
-8 -6 -5 -6 6 -1 11 2 17 5 13 3 -3 4 -12 1 -19z m780 0 c-3 -8 -6 -5 -6 6 -1
11 2 17 5 13 3 -3 4 -12 1 -19z m260 0 c-3 -8 -6 -5 -6 6 -1 11 2 17 5 13 3
-3 4 -12 1 -19z m-1346 -15 c13 -16 12 -17 -3 -4 -17 13 -22 21 -14 21 2 0 10
-8 17 -17z m1446 -5 c-3 -8 -6 -5 -6 6 -1 11 2 17 5 13 3 -3 4 -12 1 -19z
m-160 -20 c-3 -8 -6 -5 -6 6 -1 11 2 17 5 13 3 -3 4 -12 1 -19z m60 0 c-3 -8
-6 -5 -6 6 -1 11 2 17 5 13 3 -3 4 -12 1 -19z m-3825 -810 c-9 -9 -8 -16 6
-31 16 -19 16 -20 -5 -8 -27 14 -31 51 -6 51 13 0 14 -3 5 -12z m136 -29 c-3
-20 -5 -19 -9 9 -3 20 -2 29 4 23 5 -5 7 -19 5 -32z m29 19 c-3 -8 -6 -5 -6 6
-1 11 2 17 5 13 3 -3 4 -12 1 -19z m33 -18 c0 -33 -16 -48 -33 -31 -9 9 -8 10
7 5 16 -6 18 -3 14 29 -2 19 0 33 4 31 4 -3 8 -18 8 -34z m81 23 c13 -16 12
-17 -3 -4 -10 7 -18 15 -18 17 0 8 8 3 21 -13z m41 5 c-5 -7 -12 -22 -15 -33
-5 -20 -5 -20 -6 1 0 11 4 25 11 32 16 16 23 15 10 0z m55 -13 c-7 -13 -14
-20 -15 -14 -2 5 2 16 8 24 18 21 20 18 7 -10z m29 -41 c-3 -8 -13 -13 -23
-13 -17 1 -17 2 0 6 11 3 17 15 18 36 1 25 3 27 6 9 3 -13 2 -30 -1 -38z
m-142 -7 c7 -6 6 -7 -4 -4 -8 2 -16 16 -17 33 -1 25 0 26 4 4 3 -14 10 -29 17
-33z m82 7 c-3 -8 -13 -13 -23 -13 -17 1 -17 2 0 6 10 3 17 15 18 31 1 18 3
21 6 9 3 -10 2 -25 -1 -33z m-217 -11 c2 -2 -3 -3 -11 -3 -9 0 -19 7 -22 16
-6 15 -4 15 11 3 10 -7 20 -15 22 -16z m-122 1 c-3 -3 -12 -4 -19 -1 -8 3 -5
6 6 6 11 1 17 -2 13 -5z m5379 -289 c52 -31 134 -106 134 -124 0 -22 -21 -10
-74 42 -106 102 -233 115 -386 37 l-38 -19 2 24 c0 13 3 23 6 23 3 0 7 1 10 2
3 1 12 3 20 5 8 3 40 14 70 25 79 30 191 23 256 -15z m-430 -90 c-9 -9 -14
-21 -10 -26 3 -5 0 -8 -8 -7 -7 2 -12 -3 -10 -10 1 -8 -2 -11 -7 -8 -8 5 -24
-4 -110 -69 -47 -35 -346 -335 -450 -452 -41 -45 -80 -84 -89 -88 -18 -7 -52
22 -51 44 0 10 3 8 9 -6 5 -13 13 -23 18 -23 10 0 66 57 192 200 161 180 365
370 474 439 51 32 71 35 42 6z m-1688 -68 c58 -31 151 -124 265 -264 52 -65
120 -145 150 -178 l55 -60 23 20 24 20 -24 -28 c-14 -15 -30 -27 -36 -27 -13
0 -83 78 -220 244 -115 140 -170 197 -222 231 -45 29 -113 49 -113 33 0 -5 -4
-7 -9 -4 -14 9 -99 -53 -151 -112 -49 -55 -217 -299 -285 -414 -5 -10 -34 -55
-63 -100 -29 -46 -59 -92 -65 -102 -7 -11 -23 -32 -36 -47 -30 -36 -51 -76
-51 -100 0 -10 -4 -21 -10 -24 -5 -3 -10 -17 -10 -30 0 -13 -4 -26 -9 -29 -5
-3 -12 -17 -15 -30 -10 -41 -64 -152 -81 -166 -8 -7 -15 -18 -15 -25 0 -7 -30
-41 -66 -75 -74 -69 -74 -64 6 -120 19 -13 37 -27 40 -30 3 -3 14 -11 25 -18
58 -37 81 -52 92 -61 7 -6 19 -11 28 -11 8 0 15 -4 15 -10 0 -5 9 -10 20 -10
11 0 20 -4 20 -8 0 -4 21 -14 48 -21 26 -7 58 -16 72 -20 14 -4 54 -9 90 -10
69 -2 158 23 212 60 14 11 29 19 33 19 21 0 137 117 235 237 23 28 121 176
136 205 9 17 20 36 25 42 15 18 59 86 59 92 0 2 12 23 27 47 15 23 28 44 28
47 1 3 11 21 23 40 26 42 27 49 6 78 -8 12 -12 27 -9 32 4 6 1 9 -6 8 -6 -2
-21 15 -33 37 -12 22 -27 46 -34 54 -8 8 -18 24 -23 35 -5 12 -18 36 -29 54
-11 17 -17 32 -13 32 3 0 -2 9 -11 19 -20 22 -78 131 -70 131 3 0 -4 13 -15
29 -12 16 -21 39 -21 51 0 11 -4 18 -10 15 -6 -3 -10 4 -10 17 0 13 -6 30 -12
37 -9 10 -9 12 -1 7 14 -8 43 -63 43 -83 0 -7 5 -13 10 -13 6 0 10 -9 10 -20
0 -11 5 -20 10 -20 6 0 10 -9 10 -19 0 -11 4 -21 8 -23 4 -1 20 -28 36 -58 31
-62 54 -102 103 -177 18 -28 33 -56 33 -62 0 -6 4 -11 8 -11 5 0 17 -16 28
-35 20 -37 32 -43 52 -23 9 9 12 9 12 -1 0 -14 -25 -42 -32 -36 -2 2 -5 -5 -5
-17 -1 -12 -6 -24 -11 -27 -5 -3 -24 -35 -43 -71 -19 -36 -36 -67 -39 -70 -7
-7 -30 -47 -55 -97 -12 -24 -24 -40 -27 -38 -2 3 -11 -11 -18 -30 -8 -19 -17
-35 -20 -35 -4 0 -18 -21 -31 -47 -13 -27 -36 -61 -51 -78 -16 -16 -28 -34
-28 -38 0 -5 -6 -14 -13 -21 -7 -8 -29 -32 -48 -56 -52 -64 -60 -72 -114 -116
-147 -121 -318 -154 -480 -94 -87 32 -236 118 -290 167 -44 40 -91 70 -105 67
-8 -1 -37 -11 -65 -22 -70 -27 -156 -22 -226 14 -76 38 -256 227 -281 295 -5
13 -15 16 -43 12 -55 -7 -244 -109 -302 -163 -12 -11 -26 -20 -30 -20 -5 0
-26 -17 -48 -37 -23 -21 -63 -56 -90 -78 -28 -22 -114 -105 -192 -184 -79 -79
-143 -137 -143 -129 0 15 186 210 286 299 87 77 165 142 185 154 9 6 36 24 60
41 45 32 147 87 232 124 43 19 46 23 36 41 -39 73 -175 239 -196 239 -4 0 -18
11 -32 24 -55 50 -113 74 -186 74 -68 0 -155 -22 -155 -39 0 -5 -6 -9 -14 -9
-14 0 -96 -77 -94 -88 1 -7 -3 -18 -31 -87 -9 -22 -22 -58 -28 -80 -7 -22 -21
-70 -33 -107 -11 -37 -20 -74 -20 -82 0 -22 -20 -70 -26 -63 -3 3 -1 30 6 59
6 29 13 62 16 73 2 11 24 81 48 155 l45 135 -42 -46 c-56 -61 -138 -180 -186
-270 -21 -40 -43 -75 -50 -77 -17 -6 -12 29 10 63 10 17 22 37 26 45 14 30 68
116 97 155 50 67 169 184 179 178 6 -3 7 -2 4 4 -7 11 28 84 76 156 50 75 144
160 199 182 57 21 167 17 218 -9 18 -9 37 -16 43 -16 20 0 226 -136 257 -170
3 -3 23 -20 45 -39 22 -18 81 -72 130 -120 50 -48 113 -103 140 -123 28 -21
56 -42 63 -48 35 -30 124 -61 180 -62 66 -2 86 7 159 75 58 53 78 89 98 172 9
39 19 77 22 85 3 8 8 26 10 40 2 14 6 32 10 40 7 16 9 29 17 75 2 17 5 30 6
30 2 0 6 21 21 125 7 47 16 91 22 97 5 7 7 19 4 28 -4 8 -2 17 3 20 6 4 10 -9
10 -29 0 -20 -4 -36 -8 -36 -5 0 -9 -21 -11 -46 -1 -25 -6 -56 -11 -69 -5 -13
-10 -43 -12 -65 -1 -23 -5 -43 -8 -45 -3 -2 -7 -23 -9 -46 -1 -24 -7 -49 -13
-56 -6 -7 -8 -13 -5 -13 3 0 1 -17 -4 -37 -16 -67 -22 -119 -12 -108 16 16 95
141 183 285 105 172 196 303 261 374 56 62 131 111 154 102 8 -3 17 -1 20 4
10 17 48 11 93 -13z m1642 -26 c0 -5 -7 -12 -16 -15 -14 -5 -15 -4 -4 9 14 17
20 19 20 6z m-4905 -31 c3 -5 -1 -10 -10 -10 -9 0 -13 5 -10 10 3 6 8 10 10
10 2 0 7 -4 10 -10z m2671 -5 c-1 -8 -5 -17 -8 -21 -5 -4 -4 16 1 34 3 9 9 -1
7 -13z m-2628 -5 c-2 -5 2 -9 7 -7 6 1 9 6 7 10 -1 5 2 6 7 2 13 -8 2 -35 -14
-35 -14 0 -27 25 -18 34 9 9 13 7 11 -4z m92 -25 c0 -13 -3 -26 -7 -28 -5 -3
-8 10 -8 28 0 18 3 31 8 28 4 -2 7 -15 7 -28z m128 28 c-11 -3 -18 -15 -19
-31 -1 -18 -3 -21 -6 -9 -7 27 4 47 24 46 17 -1 17 -2 1 -6z m80 -34 c-3 -20
-5 -19 -9 9 -3 20 -2 29 4 23 5 -5 7 -19 5 -32z m4522 25 c0 -8 -5 -12 -10 -9
-6 4 -8 11 -5 16 9 14 15 11 15 -7z m-4683 -31 c-3 -10 -5 -4 -5 12 0 17 2 24
5 18 2 -7 2 -21 0 -30z m-167 -2 c0 -16 -28 -33 -35 -21 -3 5 2 10 12 10 17 1
17 1 1 14 -24 18 -23 29 2 16 11 -6 20 -14 20 -19z m3214 -11 c8 -17 11 -28 6
-25 -5 3 -15 19 -24 35 -8 17 -11 28 -6 25 5 -3 15 -19 24 -35z m-2920 4 c3
-8 2 -12 -4 -9 -6 3 -10 10 -10 16 0 14 7 11 14 -7z m4529 4 c-6 -7 -12 -20
-15 -28 -3 -9 -7 -10 -11 -3 -4 6 0 19 9 27 18 19 31 21 17 4z m-2177 -32 c0
-14 -4 -22 -8 -20 -4 3 -8 -3 -8 -12 0 -10 -3 -15 -6 -11 -4 3 -3 14 1 24 8
16 10 24 14 38 3 13 7 2 7 -19z m2131 -39 c-11 -24 -27 -37 -27 -21 0 7 34 53
37 50 2 -1 -3 -14 -10 -29z m-54 -90 c-10 -17 -25 -39 -34 -49 -9 -10 -22 -31
-30 -46 -8 -15 -16 -29 -20 -32 -3 -3 -12 -21 -22 -41 -9 -19 -26 -44 -37 -54
-12 -11 -30 -38 -40 -61 -11 -22 -26 -47 -35 -54 -8 -7 -15 -18 -15 -25 0 -6
-9 -20 -20 -30 -11 -10 -20 -23 -20 -29 0 -6 -12 -25 -28 -41 -32 -37 -52 -70
-52 -88 0 -16 41 -99 60 -122 7 -8 9 -15 6 -15 -4 0 2 -10 14 -22 11 -12 20
-28 20 -35 0 -7 3 -13 8 -13 4 0 18 -17 32 -37 29 -44 106 -123 119 -123 4 0
14 -6 20 -14 6 -7 37 -21 68 -31 49 -16 65 -17 115 -6 58 12 138 48 138 63 0
4 6 8 13 8 29 0 174 157 222 240 6 10 17 25 24 34 7 9 10 16 6 16 -5 0 -1 8 7
18 9 9 23 31 31 47 15 27 16 28 17 8 0 -13 -4 -23 -8 -23 -5 0 -24 -30 -42
-67 -19 -38 -42 -77 -52 -87 -10 -11 -18 -24 -18 -29 0 -11 -162 -177 -173
-177 -4 0 -24 -11 -45 -23 -152 -96 -282 -67 -428 97 -37 41 -103 144 -104
161 -1 6 -9 19 -19 30 -18 20 -33 51 -35 70 -1 6 -7 10 -13 9 -30 -2 -36 -4
-30 -10 5 -6 -11 -22 -78 -80 -16 -14 -57 -39 -90 -56 -184 -95 -384 -32 -557
174 -31 38 -38 52 -29 61 9 9 13 6 17 -11 4 -12 10 -19 15 -16 5 3 9 2 9 -3 0
-11 68 -81 118 -122 118 -95 238 -121 361 -81 35 12 76 29 90 37 36 22 151
135 151 148 0 5 -12 33 -27 60 -17 33 -21 45 -10 36 10 -7 17 -20 17 -27 0 -8
5 -14 10 -14 6 0 10 -9 10 -21 0 -11 4 -18 9 -14 5 3 12 -7 14 -22 4 -27 4
-27 6 3 0 21 14 46 41 77 22 25 40 49 40 54 0 6 9 18 20 28 11 10 20 23 20 30
0 7 9 20 20 30 11 10 20 24 20 30 0 7 7 19 16 26 9 7 20 22 25 34 18 37 36 66
58 89 11 12 21 28 21 34 0 7 4 12 8 12 4 0 13 12 20 28 23 50 37 72 44 72 5 0
8 7 8 16 0 8 5 12 10 9 7 -4 4 -18 -7 -38z m-719 -105 c3 -5 -19 -9 -49 -9
-30 0 -52 4 -49 9 3 4 25 8 49 8 24 0 46 -4 49 -8z m131 -92 c33 -33 57 -60
54 -60 -2 0 -31 27 -64 60 -33 33 -57 60 -54 60 2 0 31 -27 64 -60z m-325 28
c0 -6 -3 -8 -7 -5 -3 4 -13 1 -22 -6 -14 -11 -14 -10 -2 6 15 20 31 22 31 5z
m1955 -59 c7 -10 -47 -1 -58 10 -4 4 6 6 23 3 17 -2 33 -8 35 -13z m-227 -1
c-16 -5 -28 -14 -28 -19 0 -6 -4 -8 -9 -5 -5 3 -14 -1 -21 -9 -7 -8 -17 -12
-22 -9 -11 7 70 53 92 53 8 0 3 -5 -12 -11z m-1782 -37 c40 -37 120 -87 167
-105 38 -14 64 -17 120 -12 93 7 97 8 97 16 0 4 18 15 40 25 40 18 41 18 64
-4 27 -25 45 -71 20 -50 -8 6 -14 18 -14 26 0 23 -25 25 -61 5 -94 -52 -171
-62 -258 -32 -77 26 -211 114 -211 139 0 16 13 14 36 -8z m-72 -28 c-10 -15
-17 -29 -16 -31 1 -1 -10 -16 -25 -33 -16 -17 -31 -38 -34 -47 -3 -9 -8 -11
-12 -6 -3 6 5 22 19 37 14 15 22 27 19 27 -3 0 4 10 16 23 11 12 25 33 30 46
5 13 12 21 16 18 3 -4 -2 -19 -13 -34z m1766 11 c0 -3 -7 -12 -15 -20 -16 -17
-18 -14 -9 10 6 15 24 23 24 10z m-49 -57 c-10 -9 -11 -8 -5 6 3 10 9 15 12
12 3 -3 0 -11 -7 -18z m-5411 -27 c0 -5 -3 -9 -7 -9 -22 4 -23 -3 -3 -19 25
-20 20 -43 -8 -41 -15 1 -15 2 1 6 23 6 22 15 -4 31 -16 11 -18 16 -9 28 14
16 30 19 30 4z m130 -36 c0 -12 -4 -25 -9 -28 -5 -4 -7 3 -4 14 3 11 2 27 -1
36 -5 14 -9 14 -24 3 -15 -13 -16 -12 -3 4 17 22 41 6 41 -29z m5270 36 c0 -5
-2 -10 -4 -10 -3 0 -8 5 -11 10 -3 6 -1 10 4 10 6 0 11 -4 11 -10z m-5359 -28
c-15 -27 -14 -32 5 -32 10 0 14 6 10 15 -3 8 -1 15 4 15 16 0 11 -30 -6 -37
-25 -9 -37 11 -23 41 7 14 14 24 16 22 3 -2 0 -13 -6 -24z m155 -35 c9 -3 8
-4 -3 -3 -13 1 -19 11 -20 34 -3 31 -3 31 3 3 3 -17 12 -32 20 -34z m60 0 c9
-3 8 -4 -3 -3 -13 1 -19 11 -20 34 -3 31 -3 31 3 3 3 -17 12 -32 20 -34z m80
7 c-3 -8 -13 -13 -23 -13 -17 1 -17 2 0 6 11 3 17 15 18 36 1 25 3 27 6 9 3
-13 2 -30 -1 -38z m5010 -28 c-17 -35 -34 -62 -38 -59 -9 5 20 65 36 75 6 4 7
8 2 8 -5 0 -1 9 9 20 10 11 19 20 20 20 2 0 -11 -29 -29 -64z m-5346 -490 c0
-2 -7 -6 -15 -10 -8 -3 -15 -1 -15 4 0 6 7 10 15 10 8 0 15 -2 15 -4z m119 1
c-2 -1 -12 -9 -22 -16 -15 -12 -17 -12 -11 3 3 9 13 16 22 16 8 0 13 -1 11 -3z
m79 -4 c-11 -3 -18 -15 -19 -31 -1 -18 -3 -21 -6 -9 -7 27 4 47 24 46 17 -1
17 -2 1 -6z m45 -13 c-3 -11 -2 -27 1 -36 5 -14 9 -14 24 -3 15 13 16 12 3 -4
-10 -13 -17 -15 -27 -6 -15 12 -19 51 -7 62 10 11 11 8 6 -13z m60 0 c-3 -12
-8 -19 -11 -16 -5 6 5 36 12 36 2 0 2 -9 -1 -20z m37 -14 c0 -35 -24 -51 -41
-29 -13 16 -12 17 3 4 15 -11 19 -11 24 3 3 9 4 25 1 36 -3 11 -1 18 4 14 5
-3 9 -16 9 -28z m-213 -18 c-3 -7 -5 -2 -5 12 0 14 2 19 5 13 2 -7 2 -19 0
-25z m-122 -3 c0 -12 -7 -20 -18 -21 -12 -1 -13 -1 -2 3 19 6 19 13 -2 30 -17
13 -17 14 2 11 12 -2 20 -11 20 -23z m52 -7 c-3 -7 -5 -2 -5 12 0 14 2 19 5
13 2 -7 2 -19 0 -25z m41 -3 c-3 -3 -9 2 -12 12 -6 14 -5 15 5 6 7 -7 10 -15
7 -18z m122 11 c0 -2 -8 -10 -17 -17 -16 -13 -17 -12 -4 4 13 16 21 21 21 13z
m-9 -533 c13 -16 12 -17 -3 -4 -15 11 -19 11 -24 -3 -3 -9 -4 -25 -1 -36 3
-11 1 -18 -4 -14 -13 8 -11 48 3 62 15 15 13 15 29 -5z m60 0 c13 -16 12 -17
-3 -4 -15 11 -19 11 -24 -3 -3 -9 -4 -25 -1 -36 3 -11 1 -18 -4 -14 -13 8 -11
48 3 62 15 15 13 15 29 -5z m69 -29 c0 -12 -3 -25 -8 -27 -4 -3 -7 7 -7 21 0
15 -4 27 -10 27 -5 0 -10 -12 -10 -27 0 -14 -3 -24 -7 -21 -12 7 -9 48 4 61
16 16 38 -3 38 -34z m-343 30 c-3 -3 -12 -4 -19 -1 -8 3 -5 6 6 6 11 1 17 -2
13 -5z m60 -32 c-9 -10 -14 -22 -10 -25 3 -4 1 -7 -5 -7 -17 0 -15 15 3 30 9
7 13 20 10 29 -5 13 -4 13 6 4 10 -10 9 -16 -4 -31z m71 2 c-3 -14 -5 -12 -10
9 -3 19 -2 25 4 19 6 -6 8 -18 6 -28z m-128 1 c14 -17 5 -35 -18 -34 -15 1
-15 2 1 6 21 5 23 23 2 23 -8 0 -15 5 -15 10 0 15 16 12 30 -5z m97 -17 c4
-28 -6 -18 -12 12 -2 12 -1 20 2 16 4 -4 8 -16 10 -28z m115 -10 c-8 -8 -9 -4
-5 13 4 13 8 18 11 10 2 -7 -1 -18 -6 -23z m-176 -793 c10 -40 -1 -55 -41 -55
-34 0 -35 1 -35 40 0 39 1 40 35 40 29 0 36 -4 41 -25z m-11 -191 c0 -22 -5
-29 -20 -29 -11 -1 -26 -4 -33 -8 -9 -6 -12 1 -12 26 0 41 3 44 38 42 23 -1
27 -5 27 -31z"/>
<path d="M1463 2689 c-60 -8 -124 -42 -169 -91 -44 -46 -127 -172 -116 -176 6
-2 33 8 63 21 43 21 66 24 133 23 52 -1 92 -8 111 -18 17 -9 44 -24 61 -33 30
-15 134 -109 134 -120 0 -5 47 -59 88 -101 6 -7 12 -17 12 -23 0 -6 3 -11 8
-11 4 0 16 -14 27 -30 19 -28 24 -30 84 -30 67 0 141 -17 141 -32 0 -5 4 -7 9
-3 5 3 16 -2 24 -10 9 -8 21 -15 28 -15 13 0 141 -92 177 -127 13 -13 26 -23
30 -23 4 0 27 -18 50 -40 24 -22 50 -40 57 -40 24 0 111 77 143 126 17 27 35
54 39 59 21 27 86 185 79 192 -3 3 -21 -8 -41 -25 -68 -60 -113 -74 -198 -61
-58 10 -134 47 -197 98 -25 19 -51 40 -59 46 -7 5 -50 44 -95 85 -238 217
-362 305 -481 342 -73 23 -84 25 -142 17z"/>
<path d="M1856 2068 c24 -41 139 -180 180 -218 74 -69 128 -92 212 -92 46 0
83 6 108 18 l37 18 -24 19 c-13 10 -41 34 -61 53 -20 19 -40 34 -43 34 -3 0
-16 9 -28 21 -32 30 -104 79 -116 79 -6 0 -11 4 -11 8 0 5 -29 23 -64 40 -53
26 -76 32 -131 32 -50 0 -64 -3 -59 -12z"/>
</g>
</svg>
