<svg id="Layer_1" data-name="Layer 1" xmlns="http://www.w3.org/2000/svg" xmlns:xlink="http://www.w3.org/1999/xlink" viewBox="0 0 925.61 454.02"><defs><style>.cls-1{fill:url(#linear-gradient);}.cls-2{fill:url(#linear-gradient-2);}.cls-3{fill:url(#linear-gradient-3);}.cls-4{fill:url(#linear-gradient-4);}.cls-5{fill:url(#linear-gradient-5);}</style><linearGradient id="linear-gradient" x1="146.87" y1="734.91" x2="146.87" y2="636.45" gradientUnits="userSpaceOnUse"><stop offset="0" stop-color="#2196f3"/><stop offset="1" stop-color="#1de7b5"/></linearGradient><linearGradient id="linear-gradient-2" x1="395.98" y1="734.91" x2="395.98" y2="636.45" xlink:href="#linear-gradient"/><linearGradient id="linear-gradient-3" x1="643.85" y1="738.07" x2="643.85" y2="636.45" xlink:href="#linear-gradient"/><linearGradient id="linear-gradient-4" x1="891.94" y1="734.91" x2="891.94" y2="636.45" xlink:href="#linear-gradient"/><linearGradient id="linear-gradient-5" x1="517.66" y1="583.71" x2="517.66" y2="284.05" xlink:href="#linear-gradient"/></defs><title>crytSvgNoBackground</title><path class="cls-1" d="M54.85,685.68a55.4,55.4,0,0,1,2.83-17.27,52.72,52.72,0,0,1,8.24-15.81A45,45,0,0,1,79,641a33.61,33.61,0,0,1,17.38-4.52H228.05a10.84,10.84,0,1,1,0,21.68H101.15q-7.91,0-12.76,2.83a23.49,23.49,0,0,0-7.68,6.88,24.28,24.28,0,0,0-3.84,8.92,39.51,39.51,0,0,0,0,17.84,24.21,24.21,0,0,0,3.84,8.92,23.51,23.51,0,0,0,7.68,6.89q4.85,2.82,12.76,2.82h126.9a10.84,10.84,0,1,1,0,21.68H94.15a30.38,30.38,0,0,1-16.49-4.52,43.1,43.1,0,0,1-12.31-11.63,55.26,55.26,0,0,1-7.79-15.92A58.4,58.4,0,0,1,54.85,685.68Z" transform="translate(-54.85 -284.05)"/><path class="cls-2" d="M484.28,724.07a10.79,10.79,0,0,1-10.84,10.84,9,9,0,0,1-4.07-.9,16.69,16.69,0,0,1-3.39-2.26,23.88,23.88,0,0,1-2-2.26,86.61,86.61,0,0,0-19.08-18.07,80.48,80.48,0,0,0-20.66-9.93,98.17,98.17,0,0,0-22.92-4.18q-12.09-.78-25.86-.79H329.37v27.55a10.3,10.3,0,0,1-3.28,7.68,10.54,10.54,0,0,1-7.56,3.16,10.79,10.79,0,0,1-10.84-10.84V666a28.91,28.91,0,0,1,2.48-12.2,31.58,31.58,0,0,1,6.33-9.26,28.13,28.13,0,0,1,8.8-6,24.92,24.92,0,0,1,9.94-2.15H453.11a30.76,30.76,0,0,1,12,2.37,33,33,0,0,1,9.94,6.44,30.21,30.21,0,0,1,6.77,9.49,27.75,27.75,0,0,1,2.49,11.74,10.84,10.84,0,1,1-21.68,0,7.49,7.49,0,0,0-2.37-5.65,10,10,0,0,0-5.53-2.71H336.37a7.31,7.31,0,0,0-4.75,1.47,6.2,6.2,0,0,0-2.25,3.5v11.74h46.06a259.93,259.93,0,0,1,35.91,2.26,128.75,128.75,0,0,1,29,7.34,88.7,88.7,0,0,1,23.27,13.32A92.24,92.24,0,0,1,482,718,9.93,9.93,0,0,1,484.28,724.07Z" transform="translate(-54.85 -284.05)"/><path class="cls-3" d="M644.07,675.75a135.47,135.47,0,0,0,15.59-.79,47.12,47.12,0,0,0,14.45-4.41,108.09,108.09,0,0,0,17.5-10.84q9.82-7.22,24.5-20.1a12.14,12.14,0,0,1,7.68-3.16,10.79,10.79,0,0,1,10.83,10.84,9.71,9.71,0,0,1-1.24,4.75,14.1,14.1,0,0,1-3,3.83q-14.24,12.66-25.41,20.89a138.59,138.59,0,0,1-21.11,13.1,85.06,85.06,0,0,1-19.42,6.89,97.31,97.31,0,0,1-20.33,2A107.85,107.85,0,0,1,623,696.86,74.5,74.5,0,0,1,603.65,690a147.71,147.71,0,0,1-20.77-13.21q-11.07-8.24-25.52-20.89a13.94,13.94,0,0,1-3.05-3.83,9.71,9.71,0,0,1-1.24-4.75,10.79,10.79,0,0,1,10.84-10.84,9,9,0,0,1,4.06.91,23.8,23.8,0,0,1,3.62,2.25q14.45,12.66,24.27,19.88a105.49,105.49,0,0,0,17.62,10.84,50.62,50.62,0,0,0,14.79,4.51A122.79,122.79,0,0,0,644.07,675.75Zm-14,48.32a13.88,13.88,0,1,1,4.07,9.94A13.54,13.54,0,0,1,630.07,724.07Z" transform="translate(-54.85 -284.05)"/><path class="cls-4" d="M969.62,636.45a10.79,10.79,0,0,1,10.84,10.84,10.22,10.22,0,0,1-2.93,7.34,11.22,11.22,0,0,1-7,3.5H925.14A23.41,23.41,0,0,0,914,661.41a21.45,21.45,0,0,0-6.89,6.88,26,26,0,0,0-3.39,8.81,46.4,46.4,0,0,0-.9,8.58v38.39a10.84,10.84,0,1,1-21.68,0V685.68a56.9,56.9,0,0,1,1.81-14.11,53.41,53.41,0,0,1,5.42-13.44H814.26a10.84,10.84,0,1,1,0-21.68Z" transform="translate(-54.85 -284.05)"/><path class="cls-5" d="M649.11,504.1a139.5,139.5,0,0,0-126-199.5c-.7,0-1.39,0-2.09.06A36.32,36.32,0,0,0,452.19,324a139.51,139.51,0,0,0-27.71,21.47c-2.34,2.33-4.57,4.78-6.73,7.28a28.3,28.3,0,0,0-27.13,47.41.27.27,0,0,0,.08.07,139.37,139.37,0,0,0-7.1,43.92c0,.91,0,1.82.07,2.73a22.21,22.21,0,0,0,7,41,139.09,139.09,0,0,0,22.4,41.92,20.05,20.05,0,0,0,19.71,24,20.64,20.64,0,0,0,3.71-.35,139.43,139.43,0,0,0,156,11.79L648,583.17a11.23,11.23,0,0,0,14.45-12.91ZM477,312.47a14.86,14.86,0,0,1,1.56-1.9,13.88,13.88,0,0,1,15.41-2.88,14.36,14.36,0,0,1,4.23,2.88,13.78,13.78,0,0,1,.46,19.08c-.16.18-.29.39-.46.56A13.87,13.87,0,0,1,477,312.47Zm-75,59a12.35,12.35,0,0,1,3.67-2.51,12.21,12.21,0,0,1,13.7,2.51,12.28,12.28,0,1,1-20.84,10c0-.44-.13-.86-.13-1.32A12.22,12.22,0,0,1,402,371.46Zm-.48,101.28a9.36,9.36,0,0,1-15.74-4.38c-.08-.32-.13-.65-.18-1a10.87,10.87,0,0,1-.12-1.28,9.4,9.4,0,1,1,16,6.64Zm36.42,66.13a7.27,7.27,0,0,1-10.28,0A7.27,7.27,0,1,1,440,533.73,7.17,7.17,0,0,1,437.9,538.87Zm188.46-34,10.32,51-42.17-13.58a10.75,10.75,0,0,0-3.18-.48V415.28H568.87V551.91a116.09,116.09,0,0,1-34.48,8.74V449.77H511.93V560.7A116.14,116.14,0,0,1,477.44,552V475.44H455v63.89c-.83-.6-1.67-1.19-2.48-1.81a20.55,20.55,0,0,0,.36-3.79,20.1,20.1,0,0,0-20.1-20.1,20.45,20.45,0,0,0-3.61.34,116.54,116.54,0,0,1-17.34-33.54A22.19,22.19,0,0,0,406.13,447c0-.94-.07-1.88-.07-2.82a117.14,117.14,0,0,1,5.57-35.74,28.3,28.3,0,0,0,23.87-41.86c1.57-1.78,3.18-3.52,4.86-5.2a117.66,117.66,0,0,1,21-16.67c.42.47.83,1,1.27,1.4a36.31,36.31,0,0,0,61.4-19A117.06,117.06,0,0,1,627.37,497.52,11.23,11.23,0,0,0,626.36,504.88Z" transform="translate(-54.85 -284.05)"/></svg>