<svg id="Layer_1" data-name="Layer 1" xmlns="http://www.w3.org/2000/svg" xmlns:xlink="http://www.w3.org/1999/xlink" viewBox="0 0 1000.3 999.83"><defs><style>.cls-1{fill:#041416;}.cls-2{fill:url(#linear-gradient);}</style><linearGradient id="linear-gradient" x1="500.41" y1="996.08" x2="500.41" y2="3.81" gradientUnits="userSpaceOnUse"><stop offset="0" stop-color="#2196f3"/><stop offset="1" stop-color="#1de7b5"/></linearGradient></defs><title>cryt</title><rect class="cls-1" width="1000.3" height="999.83"/><path class="cls-2" d="M926,732.45A468.66,468.66,0,0,0,970,534c0-127.49-50.63-243.26-132.33-326.76S642.86,71.85,518.22,71.87c-2.27,0-4.51.14-6.77.17a120,120,0,0,0-22.72-33,115.8,115.8,0,0,0-166.39,0,121.49,121.49,0,0,0-34.46,85.09c0,4,.21,8,.59,12a454.13,454.13,0,0,0-89.72,71.1C191.18,215,184,223.05,177,231.32a89.35,89.35,0,0,0-23-3.09,90.48,90.48,0,0,0-64.84,27.46,95.29,95.29,0,0,0,0,132.63c.08.09.18.16.26.25A470.88,470.88,0,0,0,66.42,534c0,3,.17,6,.23,9.06a73.83,73.83,0,0,0-35.84,63.58c0,35.92,25.15,65.76,58.41,72.26a464.89,464.89,0,0,0,72.52,138.83,69.1,69.1,0,0,0-1.25,12.88c0,36.77,29.13,66.55,65.08,66.56a63.22,63.22,0,0,0,12-1.18c77.07,62.59,174.68,100.13,280.66,100.11A441.92,441.92,0,0,0,742.59,935l179.93,59.27a35.81,35.81,0,0,0,35.37-7.67,37.79,37.79,0,0,0,11.41-35.09ZM368.69,97.91a46.9,46.9,0,0,1,5.06-6.27,44,44,0,0,1,49.87-9.54,45.3,45.3,0,0,1,13.7,9.54,46.42,46.42,0,0,1,1.5,63.17c-.53.6-.94,1.28-1.5,1.85A43,43,0,0,1,392.79,168a44.63,44.63,0,0,1-19-11.38,46.62,46.62,0,0,1-5.06-58.75ZM125.85,293.25a40,40,0,0,1,11.88-8.3,38.85,38.85,0,0,1,44.35,8.3,41.32,41.32,0,0,1,0,57.52,39.14,39.14,0,0,1-56.23,0,40.78,40.78,0,0,1-11.22-24.42c-.15-1.44-.42-2.85-.43-4.34A40.93,40.93,0,0,1,125.85,293.25Zm-1.57,335.37a29.95,29.95,0,0,1-43,0,31.26,31.26,0,0,1-7.92-14.49,32.18,32.18,0,0,1-.57-3.26,32.89,32.89,0,0,1-.42-4.25,31.31,31.31,0,0,1,8.91-22,29.95,29.95,0,0,1,43,0,31.62,31.62,0,0,1,0,44Zm117.93,219a23.16,23.16,0,0,1-33.28,0,24.47,24.47,0,0,1,0-34,23.16,23.16,0,0,1,33.28,0,24.47,24.47,0,0,1,0,34ZM852.33,735l33.4,169-136.5-45a35.51,35.51,0,0,0-10.3-1.58V438.37H666.22V890.78a368.78,368.78,0,0,1-111.65,29V552.57h-72.7V919.89A369.59,369.59,0,0,1,370.22,891V637.55H297.51V849.12c-2.69-2-5.41-4-8.05-6a68.86,68.86,0,0,0,1.19-12.53c0-36.77-29.13-66.55-65.08-66.56a63.47,63.47,0,0,0-11.69,1.14,389.39,389.39,0,0,1-56.14-111.1,74.47,74.47,0,0,0-18.38-110.75c-.08-3.12-.23-6.21-.23-9.34a395.54,395.54,0,0,1,18-118.35,90.53,90.53,0,0,0,61.64-27.31A95.41,95.41,0,0,0,234.42,277c5.1-5.88,10.31-11.67,15.74-17.23a383.47,383.47,0,0,1,68-55.19c1.37,1.55,2.68,3.16,4.13,4.64a115.82,115.82,0,0,0,166.39,0,121.06,121.06,0,0,0,32.38-62.95c103.64.82,197.09,43.92,265.17,113.5,68.66,70.28,111,167,111,274.18a392.71,392.71,0,0,1-41.7,176.71A37.92,37.92,0,0,0,852.33,735Z" transform="translate(0.3 -0.17)"/></svg>