<?xml version="1.0" encoding="utf-8"?>
<!-- Generator: Adobe Illustrator 23.0.1, SVG Export Plug-In . SVG Version: 6.00 Build 0)  -->
<svg version="1.1" id="Layer_1" xmlns="http://www.w3.org/2000/svg" xmlns:xlink="http://www.w3.org/1999/xlink" x="0px" y="0px"
	 viewBox="0 0 1000 1000" style="enable-background:new 0 0 1000 1000;" xml:space="preserve">
<style type="text/css">
	.st0{fill:url(#SVGID_1_);}
</style>
<linearGradient id="SVGID_1_" gradientUnits="userSpaceOnUse" x1="500.4129" y1="996.0829" x2="500.4129" y2="3.811">
	<stop  offset="0" style="stop-color:#2196F3"/>
	<stop  offset="1" style="stop-color:#1DE7B5"/>
</linearGradient>
<path class="st0" d="M925.99,732.45c28.05-60.14,44.04-127.45,44.03-198.48c0.02-127.49-50.63-243.25-132.33-326.76
	C756.04,123.65,642.86,71.85,518.22,71.87c-2.27,0-4.51,0.14-6.77,0.17c-5.79-12.3-13.43-23.51-22.72-32.98
	c-21.18-21.72-50.82-35.27-83.2-35.25c-32.37-0.02-62.02,13.53-83.2,35.25c-21.24,21.66-34.48,51.98-34.46,85.1
	c0,4.03,0.21,8.02,0.59,11.96c-32.8,19.85-62.98,43.73-89.72,71.1c-7.57,7.74-14.77,15.84-21.79,24.11
	c-7.37-1.96-15.05-3.1-22.99-3.1c-25.24-0.01-48.33,10.54-64.84,27.47c-16.55,16.89-26.87,40.5-26.86,66.32
	c-0.01,25.81,10.3,49.43,26.86,66.31c0.08,0.09,0.18,0.16,0.26,0.24c-14.83,45.76-22.98,94.63-22.97,145.41
	c0,3.04,0.17,6.04,0.22,9.06c-21.41,12.75-35.83,36.41-35.84,63.58c0.01,35.92,25.15,65.76,58.41,72.26
	c16.38,50.75,41.1,97.6,72.52,138.83c-0.8,4.17-1.24,8.47-1.25,12.88c0.01,36.77,29.13,66.55,65.08,66.56c4.1,0,8.1-0.44,11.99-1.18
	c77.07,62.58,174.68,100.13,280.66,100.11c81.58,0.01,158.28-22.29,224.37-61.07l179.93,59.28c12.25,4.04,25.77,1.1,35.37-7.67
	c9.6-8.77,13.96-22.19,11.41-35.09L925.99,732.45z M368.69,97.91c1.52-2.22,3.18-4.34,5.05-6.27C382,83.26,393,78.19,405.53,78.17
	c6.51,0.01,12.58,1.44,18.09,3.93c5.1,2.31,9.73,5.51,13.7,9.54c8.19,8.44,13.15,19.7,13.17,32.51
	c-0.02,11.94-4.45,22.44-11.67,30.65c-0.53,0.6-0.94,1.28-1.5,1.86c-8.25,8.38-19.26,13.45-31.79,13.47
	c-4.49-0.01-8.7-0.87-12.74-2.09c-7.24-2.19-13.75-6-19.05-11.38c-8.19-8.44-13.15-19.7-13.17-32.51
	C360.59,114.28,363.59,105.36,368.69,97.91z M125.85,293.25c3.43-3.49,7.46-6.27,11.88-8.3c4.95-2.28,10.39-3.6,16.24-3.61
	c11.06,0.01,20.84,4.51,28.11,11.91c7.24,7.44,11.63,17.44,11.65,28.76c-0.01,11.31-4.41,21.31-11.65,28.76
	c-7.28,7.4-17.05,11.9-28.11,11.91c-11.06-0.01-20.84-4.51-28.12-11.91c-6.28-6.46-10.23-14.91-11.22-24.41
	c-0.15-1.44-0.42-2.85-0.43-4.34C114.22,310.7,118.61,300.7,125.85,293.25z M124.28,628.62c-5.57,5.66-13.04,9.1-21.51,9.11
	c-8.47-0.01-15.94-3.45-21.51-9.11c-3.86-3.97-6.58-8.94-7.92-14.49c-0.26-1.06-0.42-2.15-0.57-3.26c-0.19-1.4-0.42-2.78-0.42-4.25
	c0.01-8.66,3.37-16.3,8.91-22c5.57-5.66,13.04-9.1,21.51-9.11c8.47,0.01,15.94,3.45,21.51,9.11c5.54,5.7,8.9,13.34,8.91,22
	C133.18,615.28,129.82,622.92,124.28,628.62z M242.21,847.61c-4.32,4.39-10.08,7.04-16.64,7.05c-6.56-0.01-12.32-2.66-16.64-7.05
	c-4.29-4.42-6.88-10.31-6.89-17.02c0.01-6.71,2.6-12.6,6.89-17.02c4.32-4.39,10.08-7.04,16.64-7.05c6.56,0.01,12.32,2.66,16.64,7.05
	c4.29,4.42,6.88,10.31,6.89,17.02C249.09,837.31,246.5,843.19,242.21,847.61z M852.33,735.04l33.41,169.01l-136.5-44.97
	c-3.36-1.1-6.83-1.5-10.3-1.58V438.37h-72.7v452.41c-34.85,15.18-72.33,25.12-111.65,28.96V552.57h-72.7v367.32
	c-39.3-3.83-76.81-13.77-111.65-28.91V637.55h-72.7v211.57c-2.7-1.98-5.41-3.95-8.06-6c0.76-4.06,1.19-8.24,1.19-12.53
	c-0.01-36.77-29.13-66.55-65.08-66.56c-4,0-7.89,0.43-11.69,1.13c-24.25-33.33-43.31-70.76-56.14-111.09
	c10.58-12.81,16.99-29.36,17-47.45c-0.01-26.98-14.23-50.49-35.38-63.3c-0.07-3.11-0.23-6.21-0.23-9.34
	c0.01-41.32,6.37-81.06,18.04-118.35c23.98-0.84,45.83-11.1,61.64-27.3c16.55-16.89,26.87-40.5,26.86-66.31
	c0.01-16.24-4.08-31.6-11.23-44.98c5.1-5.89,10.3-11.67,15.74-17.23c20.51-20.96,43.36-39.46,68.06-55.19
	c1.37,1.55,2.68,3.16,4.12,4.63c21.18,21.72,50.82,35.27,83.2,35.25c32.37,0.02,62.02-13.53,83.2-35.25
	c16.39-16.71,27.93-38.61,32.38-62.94c103.64,0.81,197.09,43.92,265.17,113.49c68.66,70.29,111.02,166.99,111.03,274.18
	c-0.01,63.76-15.09,123.66-41.7,176.72C851.85,718.2,850.69,726.77,852.33,735.04z"/>
</svg>
