<svg id="Layer_1" data-name="Layer 1" xmlns="http://www.w3.org/2000/svg" xmlns:xlink="http://www.w3.org/1999/xlink" viewBox="0 0 395.88 315.01"><defs><style>.cls-1,.cls-2{stroke:#fff;stroke-miterlimit:10;}.cls-1{fill:url(#linear-gradient);}.cls-2{fill:none;stroke-linecap:round;stroke-dasharray:0 4;}</style><linearGradient id="linear-gradient" x1="267.68" y1="270.63" x2="135.81" y2="44.89" gradientTransform="translate(5.06 58.01) rotate(0.29)" gradientUnits="userSpaceOnUse"><stop offset="0.45"/><stop offset="0.53" stop-color="#1f3343"/><stop offset="0.64" stop-color="#447093"/><stop offset="0.73" stop-color="#609dcd"/><stop offset="0.8" stop-color="#71b9f1"/><stop offset="0.83" stop-color="#77c3ff"/></linearGradient></defs><title>stockmarketGraph</title><polygon id="graph" class="cls-1" points="395.38 93.51 368.56 59.37 346.43 85.26 339.47 76.22 329.42 87.17 319.48 75.12 310.36 97.07 303.29 112.04 293.21 125.98 281.07 153.92 269.24 121.86 260.13 141.81 248.12 144.75 234.14 140.68 227.19 131.65 219.15 139.61 201.17 134.51 192.2 128.47 181.13 142.41 179.05 157.4 159.94 180.3 151.83 201.26 139.8 206.2 128.8 206.14 122.84 199.11 118.82 203.09 102.71 225.01 90.68 229.95 75.61 243.87 65.52 261.82 56.51 263.77 44.42 280.71 36.46 272.67 24.36 291.61 1.25 313.49 394.25 314.5 395.38 93.51"/><rect class="cls-2" x="1.4" y="0.5" width="392.5" height="312.5"/><line class="cls-2" x1="1.4" y1="293.47" x2="393.9" y2="293.47"/><line class="cls-2" x1="1.4" y1="273.94" x2="393.9" y2="273.94"/><line class="cls-2" x1="1.4" y1="254.41" x2="393.9" y2="254.41"/><line class="cls-2" x1="1.4" y1="234.88" x2="393.9" y2="234.88"/><line class="cls-2" x1="1.4" y1="215.34" x2="393.9" y2="215.34"/><line class="cls-2" x1="1.4" y1="195.81" x2="393.9" y2="195.81"/><line class="cls-2" x1="1.4" y1="176.28" x2="393.9" y2="176.28"/><line class="cls-2" x1="1.4" y1="156.75" x2="393.9" y2="156.75"/><line class="cls-2" x1="1.4" y1="137.22" x2="393.9" y2="137.22"/><line class="cls-2" x1="1.4" y1="117.69" x2="393.9" y2="117.69"/><line class="cls-2" x1="1.4" y1="98.16" x2="393.9" y2="98.16"/><line class="cls-2" x1="1.4" y1="78.63" x2="393.9" y2="78.63"/><line class="cls-2" x1="1.4" y1="59.09" x2="393.9" y2="59.09"/><line class="cls-2" x1="1.4" y1="39.56" x2="393.9" y2="39.56"/><line class="cls-2" x1="1.4" y1="20.03" x2="393.9" y2="20.03"/><line class="cls-2" x1="369.37" y1="0.5" x2="369.37" y2="313"/><line class="cls-2" x1="344.84" y1="0.5" x2="344.84" y2="313"/><line class="cls-2" x1="320.31" y1="0.5" x2="320.31" y2="313"/><line class="cls-2" x1="295.78" y1="0.5" x2="295.78" y2="313"/><line class="cls-2" x1="271.25" y1="0.5" x2="271.25" y2="313"/><line class="cls-2" x1="246.72" y1="0.5" x2="246.72" y2="313"/><line class="cls-2" x1="222.19" y1="0.5" x2="222.19" y2="313"/><line class="cls-2" x1="197.65" y1="0.5" x2="197.65" y2="313"/><line class="cls-2" x1="173.12" y1="0.5" x2="173.12" y2="313"/><line class="cls-2" x1="148.59" y1="0.5" x2="148.59" y2="313"/><line class="cls-2" x1="124.06" y1="0.5" x2="124.06" y2="313"/><line class="cls-2" x1="99.53" y1="0.5" x2="99.53" y2="313"/><line class="cls-2" x1="75" y1="0.5" x2="75" y2="313"/><line class="cls-2" x1="50.47" y1="0.5" x2="50.47" y2="313"/><line class="cls-2" x1="25.94" y1="0.5" x2="25.94" y2="313"/></svg>