<?xml version="1.0" encoding="utf-8"?>
<!-- Generator: Adobe Illustrator 23.0.1, SVG Export Plug-In . SVG Version: 6.00 Build 0)  -->
<svg version="1.1" id="Layer_1" xmlns="http://www.w3.org/2000/svg" xmlns:xlink="http://www.w3.org/1999/xlink" x="0px" y="0px"
	 viewBox="0 0 500 500" style="enable-background:new 0 0 500 500;" xml:space="preserve">
<style type="text/css">
	.st0{fill:#2C2F34;}
	.st1{fill:#3C91CA;}
</style>
<g>
	<path class="st0" d="M252.53,35c4.76,0,9.51,0,14.27,0c0.56,0.53,1.12,0.53,1.68,0c1.12,0,2.24,0,3.36,0
		c6.75,1.18,13.49,2.42,19.87,5.06c6.01,2.54,12.03,5.07,17.32,8.99c1.12,0.78,2.25,1.56,3.42,2.29c4.78,3.91,9.76,7.61,13.69,12.45
		c1.29,1.69,2.98,3.01,4.26,4.71c4.09,5.55,8,11.21,10.9,17.51c0.53,1.09,1,2.21,1.42,3.35c1.9,4.38,3.31,8.92,4.52,13.53
		c0.34,4.62,2.51,7.56,7.31,8.42c1.57,0.28,3.09,1.06,4.56,1.8c3.44,1.98,7.21,3.37,10.47,5.68c2.26,1.48,4.38,3.16,6.61,4.69
		c4.43,3.47,8.02,7.79,11.95,11.78c1.46,2.06,3.06,4.01,4.49,6.1c2.79,3.74,4.54,8.05,6.79,12.1c2.45,4.87,4.09,10.02,5.33,15.32
		c1.86,5.63,1.59,11.56,2.51,17.33c-0.58,5.43-0.55,10.93-1.73,16.29c-1.46,5.77-2.82,11.56-5.22,17.04
		c-2.13,3.72-3.7,7.75-6.15,11.3c-6.29,9.63-14.02,17.84-23.78,24.04c-3.52,2.51-7.4,4.37-11.24,6.3
		c-6.07,2.93-12.62,4.23-19.14,5.65c-4.89,0.79-9.78,1.43-14.75,1.12c-5.5,0.16-10.99,0.14-16.48,0.02
		c-5.58,0.14-11.16,0.15-16.74,0c-5.59,0.13-11.19,0.15-16.78,0c-5.6,0.13-11.19,0.15-16.78,0c-5.6,0.13-11.19,0.15-16.79,0
		c-5.6,0.13-11.19,0.15-16.79,0c-5.59,0.13-11.19,0.15-16.78,0c-5.59,0.13-11.18,0.15-16.77,0c-5.56,0.13-11.12,0.15-16.68,0
		c-5.39,0.06-10.79,0.22-16.17-0.11c-5.86-1.09-11.87-1.54-17.41-3.99c-5.68-2.45-11.39-4.87-16.26-8.83
		c-0.9-0.76-1.92-1.38-2.83-2.13c-5.64-4.19-10.31-9.32-14.36-15.03c-0.37-0.47-0.72-0.95-1.05-1.45
		c-3.84-5.16-6.42-10.98-8.92-16.85c-3.02-7.2-3.96-14.81-4.51-22.5c-0.28-1.39-0.28-2.77-0.01-4.16c0.51-7.94,1.67-15.76,4.7-23.19
		c4.82-10.93,10.92-20.94,20.52-28.42c2.13-1.66,3.44-3.65,2.35-6.49c-0.36-5.14-0.69-10.28,0.59-15.35
		c0.48-2.39,1.04-4.76,1.97-7.02c1.54-3.6,3.04-7.22,5.18-10.53c4.74-7.24,10.68-13.2,18.41-17.26c3.63-1.82,7.29-3.55,11.22-4.63
		c5.09-1.37,10.27-1.89,15.52-1.61c5,1.52,8.18-0.54,10.3-5.04c0.82-1.75,2.28-3.15,3.37-4.76c1.32-1.7,2.97-3.09,4.37-4.71
		c3.87-4.6,8.33-8.55,13.29-11.94c1.3-0.83,2.6-1.66,3.8-2.64c4.91-3.62,10.68-5.65,15.96-8.59c3.92-1.65,8.02-2.74,12.07-3.98
		c3.74-1.43,7.85-0.32,11.61-1.67c0.84,0,1.68,0,2.52,0C251.41,35.53,251.97,35.53,252.53,35z"/>
	<path class="st1" d="M279.52,439.5c-1.1,6.49-4.29,11.92-8.54,16.81c-3.66,2.7-7.3,5.46-11.73,6.86
		c-5.8,1.88-11.67,1.76-17.56,0.55c-9.54-3.44-16.3-9.82-20.2-19.19c0.18-1.51-0.56-2.81-0.97-4.18c-2.44-6.72-1.26-13.1,1.8-19.32
		c0.69-1.27,1.41-2.52,2.24-3.71c3.14-4.39,6.84-8.31,11.82-10.39c3.56-1.48,4.15-3.73,4.13-7.13c-0.12-18.03-0.06-36.05-0.06-54.08
		c0.01-13.83-0.03-27.67,0.02-41.5c0.01-1,0.07-1.99,0.39-2.94c1.72-4.13,4.72-6.39,9.3-6.34c4.4,0.05,7.28,2.28,8.97,6.24
		c0.34,0.95,0.4,1.95,0.43,2.95c0.04,31.82,0.06,63.63-0.04,95.45c-0.01,3.56,0.65,5.9,4.3,7.44c4.69,1.97,8.31,5.57,11.4,9.61
		c1.05,1.33,1.66,2.91,2.48,4.37C280.3,426.95,282.3,432.99,279.52,439.5z"/>
	<path class="st1" d="M377.56,406.91c-5.59,0.24-10.95-0.72-16-3.21c-0.99-0.08-1.95-0.28-2.85-0.72
		c-6.27-3.61-9.72-9.59-13.14-15.59c-1.35-0.76-2.82-0.36-4.24-0.43c-8.63-0.28-17.29,0.72-25.88-0.76
		c-1.38-0.24-2.75-0.46-4.07-0.91c-8.33-2.85-15.07-7.7-19.43-15.53c-2.55-4.78-4.44-9.75-4.5-15.27c-0.01-14.82-0.28-29.63,0-44.44
		c0.04-1.93-0.33-3.95,1-5.65c0.23-3.21,1.87-5.61,4.33-7.54c7.22-2.08,11.03-0.11,12.86,6.66c1.22,1.74,0.92,3.74,0.93,5.66
		c0.07,14.33-0.09,28.67,0.1,42.99c0.11,0.45,0.21,0.91,0.32,1.36c0.3,2.35,0.6,4.7,2.03,6.71c4.06,6.64,10.44,7.32,17.31,6.74
		c4.96-0.07,9.91-0.09,14.85-0.01c2.96,0.5,4.93-0.43,6.24-3.38c1.76-3.94,4.48-7.29,7.74-10.16c1.25-1.19,2.68-2.13,4.18-2.97
		c5.31-3.12,10.96-4.94,17.2-4.41c5.86,0.17,11.19,1.93,15.99,5.3c1.19,0.87,2.25,1.91,3.49,2.72c4.98,4.65,8.14,10.32,9.55,16.98
		c1.59,5.5,0.6,10.82-1.07,16.1c-3.96,10.48-11.48,17.01-22.2,19.96C380.75,407.56,379.08,408.21,377.56,406.91z"/>
	<path class="st1" d="M138.44,403.63c-4.81,2.25-9.85,3.41-15.17,3.27c-1.37-0.09-2.75-0.19-4.12-0.28
		c-7.38-0.17-12.89-3.93-17.47-9.29c-2.62-3.06-5.11-6.26-6.38-10.19c-1.2-5.3-2.56-10.58-0.87-16.03
		c1.31-6.45,4.45-11.91,8.98-16.62c1.39-0.93,2.66-2,3.9-3.13c4.69-3,9.66-5.17,15.34-5.29c6.48-0.42,12.54,0.92,18.14,4.25
		c1.4,0.98,2.81,1.95,4.06,3.13c3.23,2.87,5.95,6.19,7.72,10.11c1.3,2.88,3.21,3.94,6.19,3.44c4.96-0.09,9.91-0.09,14.85-0.03
		c6.99,0.75,13.3-0.25,17.41-6.85c1.52-2.02,1.67-4.43,1.88-6.82c0.07-0.49,0.19-0.96,0.35-1.43c0.42-14.21,0.08-28.41,0.17-42.62
		c0.01-2.24,0.06-4.45,0.95-6.55c2.92-6.67,6.67-8.19,13.61-5.52c1.77,1.8,3.28,3.74,3.57,6.37c1.25,1.56,1,3.42,1.03,5.21
		c0.24,15.72,0.05,31.44-0.02,47.15c-2.08,14.47-9.85,24.34-23.7,29.31c-7.85,2.2-15.9,1.72-23.91,1.75c-2.08,0.01-4.15,0-6.22,0
		c-1.45,0.08-2.94-0.32-4.32,0.43c-2.24,2.65-3.08,6.16-5.37,8.77c-2.28,2.6-4.72,5.03-7.72,6.82
		C140.39,403.41,139.45,403.65,138.44,403.63z"/>
</g>
</svg>
