<svg id="Layer_1" data-name="Layer 1" xmlns="http://www.w3.org/2000/svg" viewBox="0 0 412.68 481.47"><title>database</title><path d="M456.71,80.74v61.9c-2,10.55-8,18.62-16,25.46-1.92,1.65-3.91,3.24-6,4.71-14,10-29.62,16.63-45.84,21.95-34.44,11.29-70,16.41-106,18.58a548.76,548.76,0,0,1-77-.86c-25.08-2-49.9-5.68-74.28-12-19.77-5.09-39.08-11.5-56.73-22C60.6,170.06,47.75,160.22,44,142.64V80.74C46,70,52.14,61.8,60.28,55a98.65,98.65,0,0,1,10-7.45c17.58-11.29,37-18.27,57-23.65C161,14.8,195.46,10.62,230.28,9.4c1.3-.05,2.58-.26,3.88-.39h32.42c.8.12,1.6.3,2.4.35,9,.53,18,.9,26.94,1.57a418.6,418.6,0,0,1,73.7,11.91C389.44,28,408.8,34.45,426.46,45.06,440.5,53.49,453.13,63.34,456.71,80.74Z" transform="translate(-44.03 -9.01)"/><path d="M44,418.75V314.59C46,325,51.83,333,59.62,339.7a87.27,87.27,0,0,0,7.93,6.17c15.9,10.88,33.61,17.78,51.92,23.24,32.14,9.59,65.12,14.2,98.51,16.17a548.41,548.41,0,0,0,87.76-1.83c24.45-2.48,48.6-6.56,72.24-13.36,18.52-5.33,36.52-12,52.76-22.58,12.29-8,22.84-17.59,26-32.92V418.75c-.44,1.65-.83,3.31-1.33,4.94-2.9,9.3-9.13,16.16-16.46,22.13-12.28,10-26.39,16.63-41.12,22C361,481.33,322.64,487,283.71,489.48c-5.87.38-11.75.67-17.62,1H234.65c-.81-.11-1.61-.28-2.41-.33-9.16-.53-18.32-.9-27.46-1.59a423.21,423.21,0,0,1-73.77-12c-19.45-5-38.45-11.37-55.83-21.66C60.79,446.42,47.72,436.56,44,418.75Z" transform="translate(-44.03 -9.01)"/><path d="M456.71,177V280.2c-2,10.55-8,18.62-16,25.46-1.92,1.66-3.91,3.24-6,4.71-14,10-29.61,16.63-45.84,21.95-34.44,11.29-70,16.41-106,18.58a548.76,548.76,0,0,1-77-.86c-25.08-2-49.9-5.68-74.28-12-19.77-5.09-39.08-11.5-56.73-22C60.6,307.62,47.75,297.78,44,280.2V177c2,10.36,7.8,18.37,15.59,25.1a87.38,87.38,0,0,0,7.93,6.18c15.9,10.87,33.61,17.78,51.92,23.24,32.14,9.59,65.12,14.2,98.51,16.17a548.41,548.41,0,0,0,87.76-1.83c24.45-2.48,48.6-6.56,72.24-13.36,18.52-5.33,36.52-12,52.76-22.58C443,201.91,453.58,192.36,456.71,177Z" transform="translate(-44.03 -9.01)"/></svg>