<svg id="Layer_1" data-name="Layer 1" xmlns="http://www.w3.org/2000/svg" viewBox="0 0 300.81 300.81"><defs><style>.cls-1{stroke:#fff;}.cls-1,.cls-2{stroke-miterlimit:10;}.cls-2{fill:#fff;stroke:#000;}</style></defs><title>filter</title><circle class="cls-1" cx="150.41" cy="150.41" r="149.91"/><path class="cls-2" d="M151.45,49.31h94.7c.45,0,.91,0,1.37,0,3.3-.17,6.19.85,7.64,3.9s.51,6.09-1.53,8.73q-6,7.77-12,15.52Q213.91,113.27,186.14,149a8.76,8.76,0,0,0-1.94,5.81c.06,28.29,0,56.59.09,84.88,0,4.22-1.56,7-5.23,9-16.45,9.2-32.91,18.37-49.18,27.88-6.28,3.68-12-.37-11.94-7,.12-38.49,0-77,.09-115.47a7.26,7.26,0,0,0-1.65-4.76Q82.47,105.73,48.6,62C46.79,59.65,46,57.22,47,54.35c1.2-3.57,3.38-5,7.71-5q25.34,0,50.66,0ZM132.73,258c1-.5,1.7-.83,2.4-1.22,10.78-6.09,21.54-12.22,32.35-18.25a3.65,3.65,0,0,0,2.19-3.71c-.06-28,0-56-.08-84a11.63,11.63,0,0,1,2.58-7.55q30.08-38.58,60.05-77.25c.46-.6.87-1.25,1.38-2H69c.64.87,1.07,1.48,1.52,2.07q29.79,38.66,59.63,77.27a11.33,11.33,0,0,1,2.46,7.34q-.07,52.24,0,104.49C132.61,256.07,132.68,256.88,132.73,258Z" transform="translate(-0.96 -1.88)"/></svg>