<svg id="Layer_1" data-name="Layer 1" xmlns="http://www.w3.org/2000/svg" viewBox="0 0 300.81 300.81"><defs><style>.cls-1{stroke:#fff;}.cls-1,.cls-2{stroke-miterlimit:10;}.cls-2{fill:#fff;stroke:#000;}</style></defs><title>mineIcon</title><circle class="cls-1" cx="150.41" cy="150.41" r="149.91"/><g id="pick"><path class="cls-2" d="M62.7,106a28.14,28.14,0,0,1,2.1-3.63C68.54,97.67,72,92.7,76.27,88.55A114.25,114.25,0,0,1,91.56,76.2c5.53-3.77,11.55-6.82,17.41-10.09,1.78-1,3.74-1.68,5.76-2.57q3.27,6.48,6.54,13c-3.38,1.5-6.69,3-10,4.44-2.86,1.29-5.77,2.49-8.53,4-5.42,2.91-10.79,5.9-16.07,9a97.45,97.45,0,0,0-8.36,5.81c-5.1,3.79-10.14,7.67-14.37,12.48-1.59,1.8-3.34,3.46-5.32,5.49l1-4.73Z" transform="translate(-1.78 -0.91)"/><path class="cls-2" d="M143.26,88l14.4-4.31c2.41,4.9,4.73,9.7,7.11,14.47,2.93,5.85,5.94,11.67,8.86,17.53,2.13,4.29,4.14,8.65,6.27,12.94,2.92,5.86,5.92,11.68,8.84,17.53,2.07,4.13,4,8.29,6.09,12.43s4.32,8.54,6.45,12.83c1.56,3.16,3,6.35,4.61,9.51,2.6,5.2,5.27,10.36,7.85,15.57,2.1,4.25,4.09,8.55,6.19,12.8s4.19,8.2,6.24,12.31c1.58,3.15,3.06,6.35,4.62,9.51,2.53,5.11,5.11,10.19,7.63,15.31a63.45,63.45,0,0,1,2.8,6.11c1.2,3.24-2.14,7.51-5.91,7.63-4.32.15-7.58-1.6-9.61-5.9-2.92-6.13-6.11-12.12-9.14-18.2-2-4.08-3.94-8.21-6-12.29-2.51-5.05-5.1-10.06-7.61-15.11-2.13-4.29-4.18-8.63-6.32-12.92-2.51-5.05-5.09-10.07-7.61-15.12-2-4-3.87-8-5.84-11.92-3.13-6.3-6.32-12.58-9.44-18.88-2-4-3.85-8-5.82-12-3.11-6.24-6.28-12.46-9.39-18.71-2-4-3.85-8-5.82-11.94-2.62-5.27-5.29-10.51-7.91-15.77C144.28,90.37,143.83,89.25,143.26,88Z" transform="translate(-1.78 -0.91)"/><path class="cls-2" d="M144.72,42.56a29.45,29.45,0,0,1,2.55,3.56c2.52,5,4.91,10,7.37,15,1.64,3.32,3.3,6.61,5,9.9a3.62,3.62,0,0,1-2,5.13c-6.45,1.94-12.95,3.74-19.37,5.78-2.45.78-4.69,1.21-6.55-.91a15.47,15.47,0,0,1-2-3.43q-4.45-9.07-8.86-18.17c-1-2.12-2.09-4.24-3.09-6.38a2.8,2.8,0,0,1,1.57-3.89c7.25-2.23,14.5-4.44,21.78-6.56A14.18,14.18,0,0,1,144.72,42.56Z" transform="translate(-1.78 -0.91)"/><path class="cls-2" d="M245.75,61.37C218,56.12,191,58.24,164.08,63.7c-1.14-2.3-2.22-4.46-3.29-6.63l-3.27-6.63c5.1-.63,10.08-1.56,15.1-1.82a242.82,242.82,0,0,1,25-.45,165.56,165.56,0,0,1,22.79,3.11,78.17,78.17,0,0,1,23.47,8.77C244.4,60.34,244.85,60.73,245.75,61.37Z" transform="translate(-1.78 -0.91)"/></g></svg>