<svg id="Layer_1" data-name="Layer 1" xmlns="http://www.w3.org/2000/svg" viewBox="0 0 308 305.5"><defs><style>.cls-1{stroke:#fff;stroke-miterlimit:10;}.cls-2{fill:#00abc0;}</style></defs><title>scrapyRoundIcon</title><ellipse class="cls-1" cx="154" cy="152.75" rx="153.5" ry="152.25"/><path class="cls-2" d="M196.23,158.33l-1,4.8a43.7,43.7,0,0,1-52.42,31.58c-1-.24-1.95-.52-2.93-.77-5.19-1.33-5.79-1-7.62,4.15a18.14,18.14,0,0,1-1.81,4.59c-2.58,4-1.4,7.24,1.24,10.91,10.67,14.85,21.05,29.92,31.55,44.91a11.28,11.28,0,0,1,1.15,1.64c.62,1.36,3,2.67.91,4.26-2.32,1.8-2.76-1.11-3.51-2.15-4.75-6.5-9.3-13.15-13.92-19.75-6.45-9.21-12.77-18.52-19.42-27.58-2.75-3.75-3.83-7.23-1.48-11.5a41.42,41.42,0,0,0,2.09-5.65c2.72-7.44,2.61-7.29-3.46-12-2.45-1.9-3.5-1.73-4.5,1.11-2.4,6.8-4.79,13.61-7.43,20.31-1.09,2.75.34,4.46,1.67,6.36l28.88,41.25c.77,1.1,1.59,2.17,2.31,3.3s2.47,2.42.67,3.85c-2.1,1.67-2.51-.81-3.22-1.79-4.44-6.11-8.76-12.3-13.1-18.48-6.36-9.07-12.61-18.22-19.11-27.18-2.11-2.92-2.31-5.5-1-8.81,2.88-7.32,5.37-14.8,8-22.21,0-5.28-2.89-8.59-7.85-8.71-7.7-.19-15.41,0-23.11-.07-2.85,0-5-.76-6.8-3.33-10.41-15.17-21.23-30-31.6-45.25a11.42,11.42,0,0,1-1.5-3.13c-.24-1.05-1.34-2.32.4-3s2.21,1.13,2.9,2.12c10.06,14.28,20.22,28.49,30,43,2.72,4,5.53,5.95,10.57,5.58,6.83-.5,13.73-.12,20.53-.12a5.07,5.07,0,0,0,.18-1.41c-3.81-11.57-3.82-11.91-16-11.48-5.82.2-9.41-1.41-12.72-6.37-10.13-15.23-20.88-30.06-31.29-45.12-1.16-1.69-4.07-4.11-1.43-5.74,2.11-1.31,3,2.35,4.14,3.94Q71.58,127.64,87.79,151c1.92,2.78,3.92,4.16,7.41,3.88,4.17-.33,9.33,1.36,12.31-.55s1.16-7.69,2.09-11.67a69.91,69.91,0,0,1,4.57-12.77c.59-1.31,1.59-2.77-1.28-3.69-17.66-5.65-23.57-17.82-17.57-35.58.42-3.41-2.52-3.4-4.46-4.27C86.2,84.32,80.85,83.76,77,80a1.28,1.28,0,0,1,0-1.32c1.2-1.89,2.59-.78,4-.28,4.73,1.73,9.53,3.29,14.18,5.21,2.81,1.15,4.59.1,7.18-1.1,7-3.23,7.75-8.59,7.09-15.09a54.49,54.49,0,0,1,0-8.57c.07-1.33-.8-3.65,1.36-3.69,2.59,0,1.62,2.5,1.67,3.93.16,4.7.22,9.41,0,14.11-.13,2.9.82,3.57,3.7,3.55,16.57-.11,27,10.65,26.52,27.23-.09,3,.24,4.47,3.68,3.73,7.65-1.64,15.08-.33,22.22,2.45,2.65,1,3.69.36,4.27-2.07a3.94,3.94,0,0,1,.14-.49C178.21,94,178.13,94,169.66,82.12c-9.06-12.73-17.95-25.57-26.9-38.36a7.78,7.78,0,0,1-1.34-2.12c-.41-1.38-2.94-2.82-.61-4.2,1.87-1.11,2.41,1.24,3.18,2.33,5.55,7.8,11,15.66,16.52,23.5,6.17,8.8,12.25,17.67,18.58,26.36a6.57,6.57,0,0,1,1,6.93c-1.65,4.22-3.07,8.53-4.75,12.73-1,2.38-.63,3.86,1.73,5.3,2.7,1.64,5,3.91,8,6.27,3-8.27,6-16.38,8.89-24.51.8-2.23-.63-3.83-1.79-5.48-9.84-14-19.72-28-29.45-42.11-1.39-2-4.66-5.21-2.52-6.6,2.79-1.81,3.64,2.74,5,4.61C175.44,61.11,185.42,75.65,195.7,90a7.83,7.83,0,0,1,1.08,8.3c-2.79,7.19-5.32,14.49-7.94,21.74-2.1,5.8.67,9.94,6.7,10,8.24,0,16.48.06,24.72,0a5.27,5.27,0,0,1,5,2.42q16.66,24,33.51,47.87c.69,1,1.42,1.9.86,3.2-2.61,1.93-3.63-.37-4.7-1.92-9.86-14.39-20.22-28.42-29.9-42.93-2-3.05-4.28-4.31-7.82-4.23-6,.13-12.1,0-18.14.07-1.75,0-3.84-.47-4.81,1.8,2,8,2,8.73,10.21,7.83,9.54-1,15.17,2.32,20.24,10.45,9,14.5,19.46,28.16,29.23,42.22.94,1.37,3,2.51,1.73,4.75-3.36,1.88-4-1.31-5.15-3-11-15.24-21.56-30.76-32.42-46.08-2-2.77-4.12-4.26-7.49-3.93-.84.08-1.68,0-2.52,0-3.35.11-7.12-1-9.95.56C194.76,151,197.77,155.37,196.23,158.33Z" transform="translate(0.41 0.5)"/></svg>