<svg id="Layer_1" data-name="Layer 1" xmlns="http://www.w3.org/2000/svg" viewBox="0 0 300.81 300.81"><defs><style>.cls-1{stroke:#fff;}.cls-1,.cls-2{stroke-miterlimit:10;}.cls-2{fill:#fff;stroke:#000;}</style></defs><title>Untitled-3</title><circle class="cls-1" cx="150.41" cy="150.41" r="149.91"/><path class="cls-2" d="M124.8,75c.86,5.49,1.54,10.66,2.51,15.78,1.31,7,8.77,10.26,14.34,6C156,85.66,153.23,84.47,169,99.88c5.74,5.61,7,10,.78,16.71-9.61,10.26-6.87,17.74,6.92,19.66,14.55,2,13.14,1.22,13.22,16.08,0,2.77-.18,5.56,0,8.31.42,5.36-1.64,8.06-7.27,8.1-2.73,0-5.43,1-8.16,1.49-10.18,1.74-12.72,8.46-6.34,16.77,9,11.75,9,11.75-1.33,22.11a24.16,24.16,0,0,0-2,2c-5.76,7.33-11.2,8.31-18.82,1.44-10.4-9.39-17.31-6.65-18.45,7.19-.8,9.66-4.3,13.75-14.18,12.47-5.42-.7-11-.12-17.3-.12-.94-5.71-1.71-10.75-2.63-15.77-1.54-8.46-8.35-11.3-15.4-6.47-13.77,9.43-13.77,9.43-25-2.24-9-9.33-9-9.33-1-19.32,7.23-9,4.36-16-7.18-18.29-4.63-.9-12.6-2.05-13-4.2-1.51-8.31-.73-17.06-.37-25.63,0-1,2.75-2.2,4.4-2.62,2.66-.69,5.49-.68,8.21-1.19,12.66-2.39,14.8-8.52,7.26-18.72-2.64-3.57-6.36-10.34-5-12.14A76.36,76.36,0,0,1,65.22,88.28c1.51-1,7.4,4.27,11,7,8.45,6.27,14.42,4,16.37-6.49.45-2.41.93-4.84,1.15-7.28.5-5.51,2.91-8.16,8.92-7.63s12.31.16,18.47.24A21.4,21.4,0,0,1,124.8,75Zm17.86,77.84a31.87,31.87,0,0,0-32.19-32.2A32.28,32.28,0,0,0,78.6,153.25,31.48,31.48,0,0,0,110.15,185C127.84,185,142.63,170.42,142.66,152.84Z" transform="translate(0.1 -1.88)"/><path class="cls-2" d="M268.85,224c-7.26,3-16.42,4-19.43,8.81-2.65,4.27,1.57,12.81,3,20.6a60.91,60.91,0,0,0-7.61,4.59c-5.62,4.42-9.35,3.15-13.59-2.44-8.39-11.11-10.49-10.89-19.34-.49-1.77,2.09-3.74,4-5.74,6.14-1.38-.65-2.48-1.11-3.51-1.68-4-2.21-8-4.47-13-7.23,1.5-4.07,2.87-8,4.39-11.9,3.09-7.89,1.29-11.33-6.78-12.78-1.51-.27-3-.93-4.51-.91-7.91.06-9.23-4.29-9.14-11.29.08-6.61,1.45-9.78,8.72-10.87,14.6-2.2,15.8-4.18,9.72-17.49-4.34-9.49,3.15-10.4,7.79-14.11,5.49-4.39,8.44-1.64,11.91,2.76,8.64,10.95,11.64,11.3,19.79-.09,5.8-8.1,10.3-3.93,16.22-1.18,7.06,3.27,5.18,7.71,3.08,12.83-4.87,11.89-3.73,14,8.53,16.95C270.32,206.81,270.32,206.81,268.85,224Zm-30.74-7.64c-.1-8.68-8.17-16.49-16.79-16.22-8.2.25-15.9,8-16,16.18-.14,8.48,8,16.74,16.44,16.76S238.21,225,238.11,216.34Z" transform="translate(0.1 -1.88)"/><path class="cls-2" d="M204.08,43.92c6.63,4.59,12.36,11.65,18,11.57,5.27-.07,10.45-7.69,16.18-12.4a43.59,43.59,0,0,1,4.08,2c13.19,8,12.31,4.44,6.63,18.48-2.85,7-1.35,11,6.09,13,15.25,4.12,15.22,4.22,13.65,21.8-4.17.69-8.62,1.38-13,2.19-6.12,1.11-9.37,4.48-7.51,10.91,4.65,16,4.73,16-10.15,22.62-5.56-4.44-10.85-11.92-16.55-12.26-5.12-.3-10.69,7.27-16.83,12a56.12,56.12,0,0,0-6.3-3c-8.25-2.91-9.46-7.6-5.62-15.42,5.08-10.34,2.76-13.77-8.48-15.25-3.33-.43-6.61-1.13-10.29-1.78V79.74c4.26-.72,8.67-1.47,13.09-2.2,6.3-1.05,9.24-4.73,7.47-10.92C190.08,51.23,189.94,51.27,204.08,43.92Zm17.31,28.64c-8.49.25-16.52,8.79-16.1,17.11s8.26,15.82,16.4,15.83c8.68,0,16.5-7.9,16.42-16.61S230,72.31,221.39,72.56Z" transform="translate(0.1 -1.88)"/></svg>