<svg id="Layer_1" data-name="Layer 1" xmlns="http://www.w3.org/2000/svg" viewBox="0 0 283.37 199.43"><defs><style>.cls-1{fill:red;}</style></defs><title>utubePlay</title><path class="cls-1" d="M155.55,252.49c-33.51-1.14-65.8-2.12-98.08-3.46A81.3,81.3,0,0,1,39.32,246c-10.59-3-17.72-9.89-21.79-20.27-4.84-12.35-5.61-25.33-6.36-38.26C9.48,158,9.4,128.48,12.82,99.11a105.06,105.06,0,0,1,3.9-18c4.52-15,15-23.77,30.3-25.1,19.89-1.72,39.9-3,59.85-2.94,47.28.16,94.56,1.21,141.84,2a68.6,68.6,0,0,1,8.45.79C272.68,58,284,66.11,287.56,81.44c3.21,13.67,5.53,27.87,5.76,41.87.43,26.94-.79,53.91-1.62,80.86a62.48,62.48,0,0,1-2.69,14.7c-5.49,19.6-17,29.06-37.29,30C219.28,250.3,186.82,251.33,155.55,252.49ZM123,189l76.78-39.85L123,109Z" transform="translate(-10.03 -53.06)"/></svg>