<svg id="Layer_1" data-name="Layer 1" xmlns="http://www.w3.org/2000/svg" viewBox="0 0 351.87 171.65"><defs><style>.cls-1{fill:#00abc0;}.cls-2{fill:#03acc0;}.cls-3{fill:#04acc1;}.cls-4{fill:#aaafb0;}.cls-5{fill:#acb2b2;}.cls-6{fill:#adb3b4;}.cls-7{fill:#a7b1b2;}.cls-8{fill:#aab3b4;}.cls-9{fill:#f8fafa;}.cls-10{fill:#eff1f1;}.cls-11{fill:#f2f6f6;}.cls-12{fill:#b6c3c5;}.cls-13{fill:#96acaf;}.cls-14{fill:#a3b1b2;}.cls-15{fill:#dfe6e7;}.cls-16{fill:#c3c9cb;}.cls-17{fill:#bcd0d4;}.cls-18{fill:#18acbe;}.cls-19{fill:#98aaad;}.cls-20{fill:#d1dee0;}.cls-21{fill:#a5c5cb;}.cls-22{fill:#97a9ad;}.cls-23{fill:#a5b7bb;}.cls-24{fill:#b7c9d6;}</style></defs><title>webBlueIcon</title><path class="cls-1" d="M271.44,110.35C281.65,64.06,263,23.54,224.57,8.54,169-13.18,112.46,24.83,112.24,84.26c0,7.77,1,15.55,1.58,23.32,12.51,41.84,42.65,61.31,78,61.52C228.11,169.31,255.42,155.18,271.44,110.35Z" transform="translate(-16.16 -2.36)"/><path class="cls-2" d="M367.58,89.92c1.89-9.19-2.26-14-10.69-17.57C337.82,64.19,319.16,55,300.34,46.28c-3.63,5.32-2.11,10.22-2.36,14.88C305,72.79,318.55,73,328.84,78.9c4.92,2.82,10.28,4.49,4.64,11.25-7.56,3.32-14.91,7.3-22.73,9.81-11.42,3.66-15.24,10.75-12.31,22,10.19,3.32,17.48-4.19,25.41-7.71C339.08,107.52,355.76,102.93,367.58,89.92Z" transform="translate(-16.16 -2.36)"/><path class="cls-3" d="M84.26,105.88,48.59,89.77c-4.46-4.83-2-7.49,2.84-9.77a142.31,142.31,0,0,1,18.95-7.62c13.29-4,18-11.89,13.93-25.13C62.45,53.69,43,65.67,22.05,74.24c-8.2,3.36-5.34,10.25-5.65,16.19,3.6,7.11,10.43,9.8,17.23,12.39,11.8,4.48,22.75,10.73,34.13,16.09,4.8,2.26,10.17,5.54,15,1.75S85.49,111,84.26,105.88Z" transform="translate(-16.16 -2.36)"/><path class="cls-4" d="M271.44,110.35c-8.15,13.65-14.92,28.2-28.2,38.19-42.39,31.86-101.49,17.25-124.06-30.82-1.62-3.46-3.56-6.76-5.36-10.14.65,25.15,27.34,55.15,57.05,63.46C216.41,183.78,266.13,154.17,271.44,110.35Z" transform="translate(-16.16 -2.36)"/><path class="cls-5" d="M84.26,105.88c-.06,16.18-.06,16.2-14.31,9.56Q43.16,103,16.4,90.44C15.14,97.55,19.17,101,25,103.69c14.13,6.37,28.07,13.19,42.28,19.39,5.32,2.32,11.19,9.3,16.86,2.89C89.19,120.3,88.61,112.62,84.26,105.88Z" transform="translate(-16.16 -2.36)"/><path class="cls-6" d="M367.58,89.92,298.44,122c-.49,6.93,3.4,7.44,8.3,5.18,18.13-8.36,36.21-16.81,54.18-25.51C365.47,99.45,368.75,95.75,367.58,89.92Z" transform="translate(-16.16 -2.36)"/><path class="cls-7" d="M84.31,47.25C86.23,58.43,82.23,65,70.78,68.45s-21.94,9.16-33,14c2.44,5.49,6.71,6.33,10.85,7.38C53.67,79.87,64.71,80.11,73,76.09,86.53,69.53,90.59,60.81,84.31,47.25Z" transform="translate(-16.16 -2.36)"/><path class="cls-8" d="M333.48,90.15,347.3,84,298,61.16c-1.72,10.92,7.45,12.17,14,15.84C319.3,81.11,329.57,80.43,333.48,90.15Z" transform="translate(-16.16 -2.36)"/><path class="cls-9" d="M127.72,105.07c3.49,13.07,11.45,22.91,23.36,33.29,0-4.83,0-7.05,0-9.28-.41-19.17-.42-19.17,18-15.55,13.5,2.66,17.59-3.78,14.44-22.7-5.21-9-11.84-5.22-18.25-1.87-5.9,3.09-11.62,7.2-17.9.78A20,20,0,0,0,144,87.17C131,85.56,126.9,90.05,127.72,105.07Z" transform="translate(-16.16 -2.36)"/><path class="cls-10" d="M251.05,87.8c-10.52,3.74-22.5,0-32.55,6.62-3.43,2.26-9.18,2.15-6.82,8.67,5.34,14.79,15.82,27.91,13,45.66,9.16-13.31,12.95-27.85,26-37.49,7.26-5.38-.36-15.54.23-23.56Z" transform="translate(-16.16 -2.36)"/><path class="cls-11" d="M225.06,52.29c-3,8,4.57,12.92,5.82,19.82.94,5.19,2.74-.32,4.17-.76,6.19-1.89,12.33-4.33,18.68-.59.48,0,1.3.22,1.4,0,2.92-5.57-3.21-23.25-10.3-26.09C236.77,41.48,228.7,42.12,225.06,52.29Z" transform="translate(-16.16 -2.36)"/><path class="cls-12" d="M225.06,52.29c5.36-4.4,14.27-8.35,17.82-5,6,5.6,15.88,11.84,10.85,23.49L257,76l-.25-.23c8.4-10-.3-17.66-4.09-25.57-3.49-7.28-8.38-13.94-15.87-18-5.63,3.61-12.64-2.83-18,2.49-8.62,10.21-8.59,10.1,4,12.71C223.84,47.63,224.32,50.6,225.06,52.29Z" transform="translate(-16.16 -2.36)"/><path class="cls-13" d="M171.14,58.73c.51-9.71-2.69-14.14-12.71-9-7.61,3.92-15.89-3.24-24.13,2.14-4.15,2.71-6.66,4.65-6.91,9.36,2.15,1.75,4.46.25,6.7.31,5.91,0,10.33-8.33,17.17-3.05C157.84,62.8,164.5,59.87,171.14,58.73Z" transform="translate(-16.16 -2.36)"/><path class="cls-14" d="M183.42,84.91c-3.19-14.47-11.33-6.66-17-3-6.93,4.4-13,8.89-21.08,2.94-1.72,2-1.41,3.91,0,5.85h0c4.91,6.37,11.19,6.09,16.64,1.84C168.47,87.44,175.92,86.42,183.42,84.91Z" transform="translate(-16.16 -2.36)"/><path class="cls-15" d="M171.14,58.73c-6.55-6.64-13.26.43-19.88-.23-3.12,7.77-6.09,15.14,7.72,9.49,2.77-1.13,6.43-.1,9.67-.07,5.28-.51,5.34-3.41,3.34-7.26A5.48,5.48,0,0,0,171.14,58.73Z" transform="translate(-16.16 -2.36)"/><path class="cls-16" d="M145.33,90.67l0-5.85c-1.28-6.89-8-7.94-12.37-11.58-3.92.58-4.21,2.54-2.07,5.44,8.58,3.3.62,5.74-.83,7.35-5.38,6-7.7,11.93-2.31,19C130.62,96.63,129.76,83.61,145.33,90.67Z" transform="translate(-16.16 -2.36)"/><path class="cls-17" d="M130.86,78.68l2.07-5.44q.58-5.83,1.16-11.68c-2.08-3.32-4.44-.66-6.7-.32C121.65,76.82,121.65,76.82,130.86,78.68Z" transform="translate(-16.16 -2.36)"/><path class="cls-16" d="M183.42,84.91c-7.5-1-14.73-.22-20.61,4.87s-11.48,4-17.48.89c4.28,12,12.08,6.57,18.46,3s12.13-8.59,19.72-2.89Z" transform="translate(-16.16 -2.36)"/><path class="cls-18" d="M218.76,34.7c3.62.65,7.78-1.15,10.86,1.84,8.16,7.92,6.63.15,7.17-4.33C230,27.25,222.82,19.75,218.76,34.7Z" transform="translate(-16.16 -2.36)"/><path class="cls-19" d="M210.63,26.62c-1.07-6.88-11.8-15-15.73-11.54-3.29,2.92.63,5.73,2.57,8.18C201.39,26.21,205.53,28.31,210.63,26.62Z" transform="translate(-16.16 -2.36)"/><path class="cls-20" d="M210.63,26.62c-4.09-2.29-8.25-4.26-13.15-3.36C200.27,30.61,202.44,40.42,210.63,26.62Z" transform="translate(-16.16 -2.36)"/><path class="cls-21" d="M150.87,35.1c1.63,3.32,4.14,6,7.74,3.57s1-4.84-1.25-6.83C153.7,30,150.91,29.79,150.87,35.1Z" transform="translate(-16.16 -2.36)"/><path class="cls-22" d="M150.87,35.1c1.43-2.54,3.81-3.2,6.49-3.25-1.24-2.27,2.44-8.06-3.42-6.59C150.12,26.22,146.2,30.05,150.87,35.1Z" transform="translate(-16.16 -2.36)"/><path class="cls-23" d="M172,60.66c-.29,2.8-.77,5.51-3.34,7.26,2.87,2.64,6.65,3.39,8.39-.1C178.91,64.09,174.91,62.25,172,60.66Z" transform="translate(-16.16 -2.36)"/><path class="cls-24" d="M250.91,87.7c2.86-3.53,6.58-6.64,5.84-11.94L257,76c-9.91-.06-3.64,8-5.95,11.81Z" transform="translate(-16.16 -2.36)"/></svg>